<svg width="48" height="48" viewBox="0 0 48 48" fill="none" xmlns="http://www.w3.org/2000/svg">
<rect width="48" height="48" rx="3" fill="#4c1d95"/>
<path fill-rule="evenodd" clip-rule="evenodd" d="M16.4739 40.4006C16.4739 41.5052 15.5784 42.4006 14.4739 42.4006H11.2264C10.1219 42.4006 9.22644 41.5052 9.22644 40.4006V12.8481C9.22644 11.6741 9.11197 10.6604 8.88302 9.80694C8.79288 9.46399 8.67466 9.12905 8.52957 8.8055C8.06499 7.78324 6.99646 7.27211 5.32397 7.27211V7.27211C5.01608 7.27211 4.76648 7.02251 4.76648 6.71462V6.43572C4.76648 5.97379 5.14094 5.59933 5.60287 5.59933H11.4564C11.8358 5.5977 12.2148 5.61949 12.5915 5.66457C12.9769 5.71252 13.3281 5.78687 13.6451 5.8876C13.9428 5.97938 14.2282 6.10728 14.4948 6.26844C15.1835 6.69221 15.6791 7.38456 15.9816 8.34548C15.9977 8.39638 16.0131 8.4475 16.0279 8.49882C16.3252 9.53966 16.4739 10.9894 16.4739 12.8481V20.0484C16.4739 21.1529 17.3693 22.0484 18.4739 22.0484H29.5262C30.6308 22.0484 31.5262 21.1529 31.5262 20.0484V7.59933C31.5262 6.49476 32.4217 5.59933 33.5262 5.59933H36.7737C37.8782 5.59933 38.7737 6.49476 38.7737 7.59933V35.1519C38.7737 36.3258 38.8881 37.3395 39.1171 38.193C39.2072 38.5359 39.3255 38.8709 39.4705 39.1944C39.9351 40.2167 41.0037 40.7278 42.6761 40.7278V40.7278C42.984 40.7278 43.2336 40.9774 43.2336 41.2853V41.5642C43.2336 42.0261 42.8592 42.4006 42.3972 42.4006H36.5437C36.1644 42.4022 35.7854 42.3813 35.4086 42.3381C35.0292 42.2928 34.6828 42.2231 34.3695 42.129C34.0676 42.041 33.7775 41.9169 33.5053 41.7593C33.0774 41.502 32.7209 41.1414 32.4684 40.7105C32.3026 40.4369 32.1623 40.1256 32.0475 39.7765C32.0206 39.6946 31.9955 39.612 31.9722 39.529C31.6883 38.5167 31.54 37.1399 31.5274 35.3983C31.5267 35.3162 31.5263 35.234 31.5262 35.1519V26.5576C31.5262 25.453 30.6308 24.5576 29.5262 24.5576H18.4739C17.3693 24.5576 16.4739 25.453 16.4739 26.5576V40.4006Z" fill="white"/>
</svg>
