<svg width="300" height="300" viewBox="0 0 300 300" fill="none" xmlns="http://www.w3.org/2000/svg">
<path d="M168.681 41.0724L203.107 100.692L184.656 95.7525C181.952 95.0414 179.158 96.6287 178.434 99.3462C177.71 102.051 179.31 104.845 182.028 105.569L212.326 113.683C212.771 113.797 213.202 113.848 213.647 113.848C214.46 113.848 215.209 113.594 215.92 113.238C216.009 113.2 216.098 113.213 216.187 113.162C216.263 113.111 216.314 113.035 216.377 112.985C216.758 112.731 217.101 112.426 217.406 112.083C217.52 111.956 217.647 111.854 217.748 111.727C218.104 111.245 218.396 110.699 218.548 110.077L226.663 79.7781C227.387 77.0734 225.787 74.2797 223.069 73.5558C220.364 72.8447 217.571 74.432 216.847 77.1495L211.907 95.6004L177.494 35.9807C170.472 23.8029 157.875 16.5266 143.819 16.5266C129.749 16.5266 117.152 23.8029 110.144 35.9807L69.5837 106.227C68.1869 108.653 69.0123 111.764 71.4377 113.161C73.8631 114.57 76.9742 113.732 78.371 111.307L118.931 41.0601C124.112 32.0697 133.407 26.698 143.807 26.698C154.207 26.698 163.5 32.069 168.681 41.0724Z" fill="#929191"/>
<path d="M132.542 251.116H47.3872C36.9999 251.116 27.7173 245.758 22.5238 236.767C17.3173 227.764 17.3173 217.008 22.5111 208.005L59.2614 144.335L64.201 162.786C64.8105 165.059 66.8677 166.557 69.1026 166.557C69.5343 166.557 69.9788 166.506 70.4232 166.392C73.128 165.668 74.7406 162.875 74.017 160.17L65.9026 129.871C65.8899 129.808 65.8391 129.77 65.8264 129.719C65.6487 129.148 65.3947 128.589 65.0137 128.106C64.8106 127.852 64.5312 127.675 64.2899 127.471C64.036 127.243 63.8328 126.989 63.5407 126.811C63.0201 126.519 62.4613 126.354 61.9026 126.265C61.8264 126.252 61.7629 126.202 61.6867 126.189C61.0518 126.1 60.4169 126.151 59.8074 126.303C59.7693 126.316 59.7185 126.303 59.6804 126.316L29.3819 134.43C26.6772 135.154 25.0646 137.948 25.7882 140.653C26.512 143.357 29.3182 144.97 32.0105 144.246L50.4614 139.294L13.6981 202.977C6.67575 215.168 6.67575 229.72 13.7235 241.899C20.7586 254.052 33.3428 261.315 47.3856 261.315H132.54C135.347 261.315 137.62 259.042 137.62 256.236C137.62 253.429 135.347 251.156 132.54 251.156L132.542 251.116Z" fill="#929191"/>
<path d="M273.913 202.94L231.019 128.643C229.622 126.217 226.498 125.379 224.086 126.789C221.66 128.185 220.822 131.296 222.232 133.722L265.113 208.019C270.307 217.022 270.281 227.765 265.088 236.768C259.881 245.759 250.599 251.13 240.237 251.13H167.208L180.718 237.619C182.699 235.638 182.699 232.413 180.718 230.432C178.738 228.451 175.512 228.451 173.531 230.432L151.347 252.616C150.877 253.086 150.509 253.645 150.255 254.267C149.734 255.512 149.734 256.908 150.255 258.153C150.509 258.775 150.89 259.334 151.347 259.804L173.531 281.988C174.522 282.978 175.817 283.473 177.125 283.473C178.42 283.473 179.728 282.978 180.719 281.988C182.7 280.007 182.7 276.781 180.719 274.801L167.208 261.29H240.237C254.269 261.29 266.84 254.026 273.889 241.848C280.938 229.67 280.95 215.118 273.927 202.939L273.913 202.94Z" fill="#929191"/>
<ellipse cx="142.953" cy="165.429" rx="59.4759" ry="59.6912" fill="#4C1D95"/>
<path d="M115.765 133.693L107.568 132.593V128.295H132.657V132.593L123.961 133.693V161.78H162.144V133.693L153.848 132.593V128.295H178.637V132.593L170.441 133.693V197.364L178.637 198.264V202.562H153.748V198.264L162.144 197.364V167.078H123.961V197.364L132.757 198.264V202.562H107.268V198.264L115.765 197.364V133.693Z" fill="white"/>
</svg>
