<svg width="300" height="300" viewBox="0 0 300 300" fill="none" xmlns="http://www.w3.org/2000/svg">
<path d="M214.37 250.58C215.515 252.565 214.833 255.106 212.848 256.251C193.902 267.183 172.784 272.791 151.403 272.791C141.448 272.791 131.429 271.573 121.548 269.126C92.7198 261.963 67.8517 244.951 50.8177 220.933L48.3078 240.676C48.0452 242.776 46.2494 244.31 44.1912 244.31C44.0127 244.31 43.8342 244.299 43.6661 244.278C41.3872 243.984 39.7805 241.905 40.0642 239.636L44.0234 208.561C44.307 206.282 46.3863 204.675 48.6653 204.959L79.7303 208.897C82.0092 209.18 83.6159 211.27 83.3323 213.538C83.0487 215.817 80.9694 217.424 78.6904 217.14L56.3532 214.315C90.1255 263.99 156.216 279.352 208.702 249.066C210.687 247.911 213.228 248.583 214.373 250.579L214.37 250.58ZM142.234 35.0307L128.288 52.201C126.839 53.9863 127.112 56.6012 128.897 58.0506C129.663 58.6807 130.598 58.9852 131.512 58.9852C132.719 58.9852 133.917 58.4601 134.736 57.452L154.468 33.1508C155.918 31.3655 155.645 28.7506 153.859 27.3013L129.569 7.56864C127.783 6.11941 125.168 6.39245 123.719 8.17774C122.27 9.96303 122.543 12.5779 124.328 14.0273L140.154 26.8813C76.9543 32.4891 28.0595 85.5539 28.0595 149.552C28.0595 151.852 29.9183 153.711 32.2183 153.711C34.5182 153.711 36.377 151.852 36.377 149.552C36.3665 89.4199 82.6473 39.6307 142.234 35.0307ZM287.042 195.362C286.149 193.251 283.713 192.253 281.602 193.146L263.256 200.854C275.49 174.232 277.832 144.354 269.756 115.894C260.956 84.9148 240.751 58.974 212.858 42.8648C210.873 41.7201 208.332 42.4027 207.187 44.3876C206.042 46.3724 206.714 48.9138 208.71 50.0586C261.333 80.4407 280.972 145.224 254.782 199.362L246.076 178.621C245.193 176.51 242.747 175.512 240.636 176.394C238.525 177.276 237.527 179.713 238.409 181.834L250.518 210.703C250.949 211.721 251.757 212.53 252.776 212.94C253.28 213.15 253.815 213.244 254.351 213.244C254.897 213.244 255.443 213.139 255.958 212.919L284.826 200.789C286.937 199.907 287.934 197.472 287.042 195.362Z" fill="#929191"/>
<ellipse cx="150.071" cy="149.643" rx="71.6691" ry="71.9286" fill="#4C1D95"/>
<path d="M104.996 187.97C111.287 187.741 116.548 188.771 116.548 182.137V117.291C116.548 110.772 111.287 112.259 104.996 112.03V109.857H139.993V112.03C133.703 112.259 128.327 110.772 128.327 117.291V145.997H171.558V117.291C171.558 110.772 166.183 112.259 159.893 112.03V109.857H195.004V112.03C188.713 112.259 183.338 110.772 183.338 117.291V182.137C183.338 188.771 188.713 187.741 195.004 187.97V190.143H159.893V187.97C166.183 187.741 171.558 188.771 171.558 182.137V149.886H128.327V182.137C128.327 188.771 133.703 187.741 139.993 187.97V190.143H104.996V187.97Z" fill="white"/>
</svg>
