<svg width="300" height="300" viewBox="0 0 300 300" fill="none" xmlns="http://www.w3.org/2000/svg">
<path d="M174.544 137.602C177.261 137.602 179.466 135.397 179.466 132.681C179.466 129.964 177.261 127.759 174.544 127.759H124.096C121.379 127.759 119.174 129.964 119.174 132.681C119.174 135.397 121.379 137.602 124.096 137.602H174.544Z" fill="#4C1D95"/>
<path d="M196.76 43.5956H135.503L158.104 20.9946C160.024 19.075 160.024 15.9546 158.104 14.0351C156.185 12.1156 153.064 12.1156 151.145 14.0351L120.137 45.0426C119.497 45.6824 119.153 46.4699 118.936 47.2869C118.887 47.4937 118.848 47.6708 118.818 47.8776C118.71 48.7241 118.739 49.5805 119.074 50.3877V50.3975C119.084 50.4172 119.104 50.4271 119.113 50.4467C119.35 51.0078 119.684 51.5394 120.137 51.9922L151.145 82.9997C152.109 83.9644 153.369 84.4467 154.629 84.4467C155.889 84.4467 157.149 83.9644 158.114 83.0095C160.033 81.09 160.033 77.9696 158.114 76.0501L135.503 53.4392H196.76C217.215 53.4392 233.871 70.0848 233.871 90.6482C233.871 111.113 217.225 127.759 196.76 127.759H190.066C187.35 127.759 185.145 129.964 185.145 132.681C185.145 135.397 187.35 137.602 190.066 137.602H196.76C222.649 137.602 243.714 116.537 243.714 90.5498C243.714 64.6511 222.649 43.5956 196.76 43.5956Z" fill="#929191"/>
<path d="M125.456 162.398C122.739 162.398 120.534 164.603 120.534 167.32C120.534 170.036 122.739 172.241 125.456 172.241H175.904C178.621 172.241 180.826 170.036 180.826 167.32C180.826 164.603 178.621 162.398 175.904 162.398H125.456Z" fill="#4C1D95"/>
<path d="M103.24 256.405H164.497L141.896 279.006C139.976 280.925 139.976 284.046 141.896 285.965C143.815 287.885 146.936 287.885 148.855 285.965L179.863 254.958C180.503 254.318 180.847 253.53 181.064 252.713C181.113 252.506 181.152 252.329 181.182 252.123C181.29 251.276 181.261 250.42 180.926 249.612V249.603C180.916 249.583 180.896 249.573 180.887 249.553C180.65 248.992 180.316 248.461 179.863 248.008L148.855 217C147.891 216.036 146.631 215.553 145.371 215.553C144.111 215.553 142.851 216.036 141.886 216.991C139.967 218.91 139.967 222.031 141.886 223.95L164.497 246.561H103.24C82.7848 246.561 66.1294 229.915 66.1294 209.352C66.1294 188.887 82.775 172.241 103.24 172.241H109.934C112.65 172.241 114.855 170.036 114.855 167.32C114.855 164.603 112.65 162.398 109.934 162.398H103.24C77.3511 162.398 56.2857 183.463 56.2857 209.45C56.2857 235.349 77.3511 256.405 103.24 256.405Z" fill="#929191"/>
<path d="M186.903 204.621C186.903 207.338 189.108 209.543 191.825 209.543C194.542 209.543 196.747 207.338 196.747 204.621V167.319C196.747 164.603 194.542 162.398 191.825 162.398C189.108 162.398 186.903 164.603 186.903 167.319V204.621Z" fill="#4C1D95"/>
<path d="M104.534 132.681C104.534 135.397 106.738 137.602 109.455 137.602C112.172 137.602 114.377 135.397 114.377 132.681V95.3786C114.377 92.6618 112.172 90.4568 109.455 90.4568C106.738 90.4568 104.534 92.6618 104.534 95.3786V132.681Z" fill="#4C1D95"/>
</svg>
